<svg xmlns="http://www.w3.org/2000/svg" viewBox="0 0 54 54"><g fill="#c70101"><path d="M53 27c0 14.359-11.641 26-26 26S1 41.359 1 27 12.641 1 27 1s26 11.641 26 26z"/><path d="M27 54C12.112 54 0 41.888 0 27S12.112 0 27 0s27 12.112 27 27-12.112 27-27 27zm0-52C13.215 2 2 13.215 2 27s11.215 25 25 25 25-11.215 25-25S40.785 2 27 2z"/></g><g fill="#fff"><path d="M28.017 17.856l8.719 15.101A.695.695 0 0136.134 34H18.696a.695.695 0 01-.602-1.043l8.719-15.101a.695.695 0 011.204 0z"/><path d="M36.134 35H18.696a1.678 1.678 0 01-1.469-.848 1.677 1.677 0 010-1.695l8.719-15.102c.307-.53.855-.848 1.469-.848s1.162.317 1.469.848l8.719 15.102a1.677 1.677 0 010 1.695 1.678 1.678 0 01-1.469.848zm-16.91-2h16.383l-8.191-14.188L19.224 33z"/></g></svg>